<svg width="1160" height="650" viewBox="0 0 1160 650" fill="none" xmlns="http://www.w3.org/2000/svg">
<g clip-path="url(#clip0_4_1615)">
<g clip-path="url(#clip1_4_1615)">
<rect width="1160" height="650" fill="#973309"/>
<ellipse cx="580" cy="556" rx="725" ry="200" fill="#93E6B8"/>
<path d="M-15 63.1969L440.513 -138L9.21759 170.246C-1.99614 135.826 -10.1739 100.037 -15 63.1969Z" fill="url(#paint0_radial_4_1615)"/>
<path d="M63.2719 289.596L477.666 -138L127.671 378.51C103.608 350.973 82.0256 321.22 63.2719 289.596Z" fill="url(#paint1_radial_4_1615)"/>
<path d="M218.369 462.959L525.223 -132.775L368.311 545.611C314.167 525.218 263.752 497.234 218.369 462.959Z" fill="url(#paint2_radial_4_1615)"/>
<path d="M475.495 574.922L559.405 -132.775L615.056 583.004C603.507 583.665 591.87 584 580.156 584C544.455 584 509.482 580.888 475.495 574.922Z" fill="url(#paint3_radial_4_1615)"/>
<path d="M744.404 561.288C712.934 380.029 651.932 130.728 616.392 -14.5178L616.392 -14.5199C598.398 -88.0571 586.931 -134.921 589.128 -132.775C595.065 -126.976 784.707 224.362 907.253 487.289C857.569 519.587 802.799 544.74 744.404 561.288Z" fill="url(#paint4_radial_4_1615)"/>
<path d="M1018.67 393.954L633.712 -132.775L1092.48 297.149C1071.17 331.913 1046.41 364.34 1018.67 393.954Z" fill="url(#paint5_radial_4_1615)"/>
<path d="M1150.28 172.732L672.352 -132.775L1174 72.6219C1168.93 107.03 1160.94 140.486 1150.28 172.732Z" fill="url(#paint6_radial_4_1615)"/>
<path d="M820.2 481.533H1131.46V168.333C1131.46 168.333 1058.64 137.925 1039.63 168.333C1035.83 174.415 1029.63 179.673 1021.67 184.218C924.027 240.012 820.2 305.527 820.2 417.99V481.533Z" fill="white"/>
<path d="M1038.67 13.6666H1061.87C1100.31 13.6666 1131.47 44.8276 1131.47 83.2666V152.867H1038.67V129.667C1038.02 118.711 1028.61 96.8 996.133 96.8C957.35 96.8 943.266 73.866 942.083 46.5353C941.99 44.4018 943.731 42.6666 945.867 42.6666H978.733C997.953 42.6666 1012.34 21.0172 1030.57 14.927C1033.01 14.1115 1035.71 13.6666 1038.67 13.6666Z" fill="white"/>
<path d="M943.856 59.9728C942.855 55.6804 942.283 51.1711 942.083 46.5353C941.99 44.4018 943.731 42.6666 945.867 42.6666H966.783C964.964 52.5657 956.292 60.0666 945.867 60.0666C945.189 60.0666 944.518 60.0349 943.856 59.9728Z" fill="#560101"/>
<rect width="92.8" height="15.4667" transform="matrix(-1 0 0 1 1131.47 152.867)" fill="#DB9A43"/>
<path d="M1083.13 193.483C1083.13 201.868 1091.73 210.867 1099.71 210.867C1109.54 210.867 1117.72 202.481 1117.93 192.664C1118.13 183.87 1109.95 175.485 1099.92 176.098C1089.68 176.712 1083.13 183.052 1083.13 193.483Z" fill="#FFBB55"/>
<circle cx="1042.53" cy="50.4" r="7.73333" fill="#560101"/>
<path d="M1112.13 106.467C1112.13 119.28 1101.75 129.667 1088.93 129.667C1076.12 129.667 1065.73 119.28 1065.73 106.467C1065.73 93.6536 1076.12 34.9332 1088.93 34.9332C1101.75 34.9332 1112.13 93.6536 1112.13 106.467Z" fill="#560101"/>
<path d="M339.8 481.533H28.5441V168.333C28.5441 168.333 101.362 137.925 120.367 168.333C124.168 174.415 130.371 179.673 138.326 184.218C235.973 240.012 339.8 305.527 339.8 417.99V481.533Z" fill="#BE724D"/>
<path d="M121.333 13.6666H98.1333C59.6943 13.6666 28.5333 44.8276 28.5333 83.2666V152.867H121.333V129.667C121.978 118.711 131.387 96.8 163.867 96.8C202.65 96.8 216.734 73.866 217.917 46.5353C218.01 44.4018 216.269 42.6666 214.133 42.6666H181.267C162.047 42.6666 147.66 21.0172 129.431 14.927C126.99 14.1115 124.29 13.6666 121.333 13.6666Z" fill="#BE724D"/>
<path d="M216.144 59.9728C217.145 55.6804 217.717 51.1711 217.917 46.5353C218.01 44.4018 216.269 42.6666 214.133 42.6666H193.217C195.036 52.5657 203.708 60.0666 214.133 60.0666C214.811 60.0666 215.482 60.0349 216.144 59.9728Z" fill="#632914"/>
<rect x="28.5332" y="152.867" width="92.8" height="15.4667" fill="#DB9A43"/>
<path d="M76.8666 193.483C76.8666 201.868 68.2699 210.867 60.2873 210.867C50.4624 210.867 42.2751 202.481 42.0704 192.664C41.8657 183.87 50.0531 175.485 60.0826 176.098C70.3168 176.712 76.8666 183.052 76.8666 193.483Z" fill="#FFBB55"/>
<circle r="7.73333" transform="matrix(-1 0 0 1 117.467 50.4)" fill="#632914"/>
<path d="M47.8666 106.467C47.8666 119.28 58.2536 129.667 71.0666 129.667C83.8796 129.667 94.2666 119.28 94.2666 106.467C94.2666 93.6536 83.8796 34.9332 71.0666 34.9332C58.2536 34.9332 47.8666 93.6536 47.8666 106.467Z" fill="#632914"/>
</g>
<path d="M1160 562.232V650H0V564.445C83.4535 486.185 312.152 430 581.202 430C847.711 430 1074.63 485.129 1160 562.232Z" fill="#B06A19"/>
<path d="M396.696 495.341C393.963 490.735 383.521 491.881 373.373 497.902C363.226 503.922 357.216 512.538 359.949 517.144L367.571 529.99C370.304 534.597 380.746 533.451 390.894 527.43C401.041 521.41 407.051 512.794 404.318 508.187L396.696 495.341Z" fill="#FFE7EB"/>
<ellipse cx="378.175" cy="505.995" rx="21.3642" ry="9.4104" transform="rotate(-30.6818 378.175 505.995)" fill="white"/>
<path d="M386.35 496.346C379.505 498.649 366.08 504.695 367.138 510.449C368.46 517.641 389.611 506.58 387.732 502.962C385.853 499.345 375.12 504.496 377.713 505.932" stroke="#A50633" stroke-width="1.52601" stroke-miterlimit="10" stroke-linejoin="round"/>
<path d="M470 238C418.614 226.137 361.852 223.235 350.427 224.281L236.5 230C154.5 243.5 60.534 317.002 34.2602 369.758C-18.9337 476.099 32.1682 563.953 148 566C180.596 566.576 183.507 511.175 177.58 479.095C251.603 458.139 341.193 442.848 439.961 435.3C490.5 475 593 444.258 593 369.758C593 298.758 521.385 249.863 470 238Z" fill="#25BE7C"/>
<path d="M1136.5 418.5C1117.5 357 962.5 275 934 263C838.93 237.237 773.881 314.438 745.35 358.725C738.096 369.985 719.049 370.354 710.286 360.225C691.449 338.449 659.752 315.846 621.5 343.999C570.563 381.489 655.5 500.999 688.5 518.999C714.9 533.399 801 497.5 812.5 445C860.5 452 881.5 453.5 953 473.5C946.778 484.508 949.261 516.132 960.887 528.738C961.903 529.839 963.188 530.641 964.563 531.237C994.546 544.231 1027.99 538.446 1048 537.499C1103 533.499 1155.5 480 1136.5 418.5Z" fill="#973309"/>
<path d="M319.53 45C347.089 45.0002 371.968 64.4968 369.877 86.9302C366.167 126.737 345.781 225.331 305 233.5C281.152 238.277 223.077 188.837 218.307 128.861C216.239 102.853 224.137 66.7613 256.465 74.192C262.294 47.6538 303.272 44.9999 319.53 45Z" fill="#CA5919"/>
<path d="M355 86C361.365 84.5771 372.552 140.159 373.706 146.5C382.716 196.003 364.618 246.458 329.374 239.171C319.127 263.421 360.935 300 308.469 300C276.599 300 248.697 279.79 231.077 264.149C224.182 258.028 224.475 247.244 230.275 240.08C241.116 226.69 251.998 210.189 252.929 189.5C223.912 191 214.907 159.5 227.633 149.131C232.782 144.936 238.533 145.529 243.403 147.744C246.373 149.095 250.468 147.423 251.357 144.283C256.232 127.07 271.475 113.261 275.828 96.7508C277.036 92.1698 281.098 88.4235 285.821 88.7941C316.113 91.1708 339.934 89.3679 355 86Z" fill="#DD9E86"/>
<path d="M770.693 110.464C769.816 116.594 763.65 126.448 779 141.5C794.35 156.552 909.395 210.303 918.167 206.8C929.131 202.421 943.934 137.832 928.035 129.074C940.096 108.274 924.198 81.4536 907.202 94.5903C903.913 53.5381 847.993 61.2012 803.038 51.8961C758.084 42.5909 761.373 69.959 757.535 81.4536C753.698 92.9483 771.789 102.801 770.693 110.464Z" fill="#0E0E10"/>
<path d="M802 128C795.635 126.577 784.448 169.159 783.294 175.5C774.284 225.003 792.382 275.458 827.626 268.171C837.873 292.421 796.065 329 848.531 329C880.401 329 908.303 308.79 925.923 293.149C932.818 287.028 932.525 276.244 926.725 269.08C915.884 255.69 905.002 239.189 904.071 218.5C933.088 220 942.093 188.5 929.367 178.131C924.218 173.936 918.467 174.529 913.597 176.744C910.627 178.095 906.91 176.414 906.902 173.151C906.884 166.134 906.975 156.61 907.019 152.512C907.031 151.398 906.126 150.514 905.021 150.369C894.329 148.964 889 136.52 889 128C854.5 131.5 818.5 131.688 802 128Z" fill="#D58E54"/>
<path d="M851 327C869.225 327 884 329.239 884 332V502C884 504.761 869.225 507 851 507C832.775 507 818 504.761 818 502V332C818 329.239 832.775 327 851 327Z" fill="#CEF9E9"/>
<path d="M876 352H826V451C826 464.807 837.193 476 851 476C864.807 476 876 464.807 876 451V352Z" fill="#25BE7C"/>
<ellipse rx="25" ry="3" transform="matrix(-1 0 0 1 851 352)" fill="#179443"/>
<path fill-rule="evenodd" clip-rule="evenodd" d="M838.365 384.839C844.029 383.997 848.374 379.114 848.374 373.216C848.374 370.496 847.45 367.992 845.898 366C840.234 366.841 835.889 371.725 835.889 377.623C835.889 380.343 836.813 382.847 838.365 384.839Z" fill="#09190F"/>
<path fill-rule="evenodd" clip-rule="evenodd" d="M832.432 442.733C832.436 446.791 834.543 450.736 838.31 452.91C842.076 455.085 846.547 454.937 850.062 452.912C850.059 448.854 847.952 444.909 844.185 442.734C840.418 440.559 835.948 440.707 832.432 442.733Z" fill="#09190F"/>
<path fill-rule="evenodd" clip-rule="evenodd" d="M865.328 410.776C858.838 410.776 853.577 405.515 853.577 399.025C853.577 396.902 854.14 394.91 855.125 393.192C855.814 393.066 856.524 393 857.249 393C863.739 393 869 398.261 869 404.751C869 406.874 868.437 408.865 867.452 410.584C866.763 410.71 866.053 410.776 865.328 410.776Z" fill="#09190F"/>
<path d="M869 385L849 295" stroke="#03401B" stroke-width="2" stroke-miterlimit="10" stroke-linejoin="round"/>
<circle r="7.5" transform="matrix(-1 0 0 1 847.5 288.5)" stroke="#03401B" stroke-width="2" stroke-miterlimit="10" stroke-linejoin="round"/>
<path d="M830.947 425C833.865 419.947 838.67 416.26 844.306 414.75C849.942 413.239 855.947 414.03 861 416.947C866.053 419.865 869.74 424.67 871.25 430.306C872.761 435.942 871.97 441.947 869.053 447L850 436L830.947 425Z" fill="#03401B"/>
<path d="M835.278 427.5C837.532 423.595 841.245 420.746 845.6 419.579C849.955 418.412 854.595 419.023 858.5 421.277C862.405 423.532 865.254 427.245 866.421 431.6C867.588 435.955 866.977 440.595 864.722 444.5L850 436L835.278 427.5Z" fill="#179443"/>
<path d="M846.536 434C847.066 433.081 847.94 432.411 848.965 432.136C849.989 431.862 851.081 432.005 852 432.536C852.919 433.066 853.589 433.94 853.864 434.965C854.138 435.989 853.995 437.081 853.464 438L850 436L846.536 434Z" fill="#CEF9E9"/>
<rect opacity="0.5" width="13.8205" height="13.8205" rx="2" transform="matrix(-0.866025 -0.5 -0.5 0.866025 860 397.91)" fill="white"/>
<rect opacity="0.5" width="13.8205" height="13.8205" rx="2" transform="matrix(-0.866025 0.5 0.5 0.866025 843.09 374)" fill="white"/>
<rect opacity="0.5" width="13.8205" height="13.8205" rx="2" transform="matrix(-0.866025 0.5 0.5 0.866025 843.09 407)" fill="white"/>
<rect opacity="0.5" width="13.8205" height="13.8205" rx="2" transform="matrix(-0.995437 0.0954215 0.0954215 0.995437 862.681 366)" fill="white"/>
<rect opacity="0.5" x="868" y="463.09" width="13.8205" height="13.8205" rx="2" transform="rotate(150 868 463.09)" fill="white"/>
<path fill-rule="evenodd" clip-rule="evenodd" d="M251 130.5C247.926 138.04 245.5 206.5 268.611 223.104C259.5 241 272 254.5 281.231 258.126C275.5 274.5 290.318 290.096 298.757 291.069C298.757 299.839 316.73 306.741 325.5 304C336.521 317.5 369.5 312 367.763 290.464C402 261 385.901 188.5 377 182.38C375.325 183.497 373.435 193.701 372.072 195.498C369.422 198.992 366.998 202.188 363.378 198.93C356.938 193.135 345.525 190.18 336.521 192.353C331.5 193.04 325.259 197.418 321.706 200.134C316.925 203.789 313.832 206.154 309.115 201.123C306.528 198.363 292.5 187.5 281 185C269.5 182.5 259.889 134.986 257.269 131.243C256.053 129.506 251.801 128.536 251 130.5ZM345.838 202.359C337.617 202.359 327.5 209 327.5 216.5C327.5 219.71 360.5 220.78 360.5 216.5C360.5 208 351.868 201.231 345.838 202.359Z" fill="#CA5919"/>
<path d="M800 234.928L828.536 226.906C828.536 226.906 832.44 243.625 817.598 248.973C802.756 254.321 800 234.928 800 234.928Z" fill="#CA5919"/>
<g clip-path="url(#clip2_4_1615)">
<path d="M293.088 141.448C297.795 141.267 320.44 140.529 326.05 141.463C337.669 143.415 340.927 151.247 340.927 151.247C340.927 151.247 340.883 177.013 317.03 177C296.247 177.007 297.499 145.892 297.499 145.892L293.088 141.448Z" fill="#C9FAFA" fill-opacity="0.3"/>
<path d="M390 143.639C386.455 143.486 369.367 142.908 365.125 143.731C356.345 145.447 353.851 152.249 353.851 152.249C353.851 152.249 353.759 174.573 371.753 174.516C387.43 174.466 386.637 147.518 386.637 147.518L390 143.639Z" fill="#C9FAFA" fill-opacity="0.3"/>
<path d="M254 154.042L297.578 149.976M340.984 153.465L353.907 153.623M293.088 141.448C297.795 141.267 320.44 140.529 326.05 141.463C337.669 143.415 340.927 151.247 340.927 151.247C340.927 151.247 340.883 177.013 317.03 177C296.247 177.007 297.499 145.892 297.499 145.892L293.088 141.448ZM390 143.639C386.455 143.486 369.367 142.908 365.125 143.731C356.345 145.447 353.851 152.249 353.851 152.249C353.851 152.249 353.759 174.573 371.753 174.516C387.43 174.466 386.637 147.518 386.637 147.518L390 143.639Z" stroke="#973309" stroke-width="6" stroke-miterlimit="10" stroke-linejoin="round"/>
</g>
<path d="M794.293 183.499C789.987 182.485 785.145 182.863 782 186.071L784.849 188.792C785.251 188.383 792.5 185 800.5 191.067L803.635 188.671C800.874 185.151 798.653 184.525 794.293 183.499Z" fill="#632914"/>
<path d="M841.8 185.442C846.225 185.563 850.803 187.165 853 191.067L849.534 192.968C849.254 192.47 843.427 186.873 831.213 192.479L828.813 189.365C832.403 186.67 837.32 185.32 841.8 185.442Z" fill="#632914"/>
<path d="M804.5 170.073C803.189 169.15 787.666 162.825 780 168.5C777.961 170.01 776 171.5 777 175.736C782.592 172.277 794.898 174.883 803.063 176.719C808.5 177.942 808 171.5 804.5 170.073Z" fill="#0E0E10"/>
<path d="M828.59 170.073C833.309 168.094 850.834 165.455 859 172.5C861.51 174.665 863.5 179 862 183C855.637 179.723 840.29 175.76 831 177.5C822.296 179.13 825.025 171.168 828.59 170.073Z" fill="#0E0E10"/>
<path d="M408.341 341.191C422.181 349.053 426.375 345.553 436.352 343.848C439.774 343.263 443.039 345.261 443.83 348.573C446.467 359.619 450.654 384.634 440.736 404.344C437.276 411.258 419.863 397.571 412.143 401.393C401.719 406.488 383.092 406.279 373.212 404.64C370.954 404.265 368.279 405.516 366.466 406.912C361.565 410.687 351.744 414.406 351.744 415.998C351.744 418.043 354.099 425.93 360.576 421.84C367.053 417.751 376.18 423.593 373.53 425.93C370.88 428.266 350.566 436.738 340.851 439.074C331.135 441.411 329.075 436.153 327.602 432.356C321.714 432.064 319.359 419.503 321.126 403.729C320.242 408.403 313.471 415.706 311.999 428.559C310.527 441.411 298.162 453.096 299.045 441.703C299.928 430.311 302.578 401.1 308.761 393.223C314.943 385.346 334.079 368.092 346.444 356.328C355 348.573 394.5 333.328 408.341 341.191Z" fill="#DD9E86"/>
<path d="M941.341 427.974C946.681 433.948 959.375 432.336 969.352 430.631C972.774 430.046 976.039 432.044 976.83 435.357C979.467 446.402 983.654 471.417 973.736 491.128C970.276 498.042 954.5 472.5 934 472.5C913.5 472.5 880.328 446.199 876.111 440.078C871.893 433.958 864.609 433.193 860.391 426.69C857.017 421.487 861.286 419.931 863.842 419.804C860.519 418.274 853.873 414.295 853.873 410.623C853.873 406.951 865.375 406.798 871.127 407.18C868.698 405.778 862.615 402.896 857.707 402.59C851.573 402.207 845.439 395.704 846.972 389.966C848.506 384.228 857.707 386.141 863.842 388.818C867.576 390.448 877.261 392.644 883.012 393.791C883.012 389.583 867.292 381.933 857.707 380.403C848.122 378.872 841.988 374.665 843.138 370.839C844.288 367.014 860.008 368.161 867.292 368.161C874.577 368.161 901.415 381.933 908.7 388.818C915.985 395.704 936 422 941.341 427.974Z" fill="#D58E54"/>
<path d="M394.055 403.423C394.018 403.283 394 403.142 394 403C394 398.582 411.909 395 434 395C456.091 395 474 398.582 474 403C474 403.142 473.982 403.283 473.945 403.423L463.873 481C463.873 485.418 450.499 489 434 489C417.501 489 404.127 485.418 404.127 481L394.055 403.423Z" fill="#FFE8C5"/>
<path d="M434 454C425.289 454 418.737 451 418.228 450C417.719 449 405 417 405 417H463C463 417 450.789 448.5 449.772 450C448.754 451.5 442.711 454 434 454Z" fill="#DB9A43"/>
<ellipse rx="29" ry="4" transform="matrix(-1 0 0 1 434 417)" fill="#B06A19"/>
<circle r="7" transform="matrix(-1 0 0 1 429 421)" fill="#E9303B"/>
<path d="M428 418L413 383" stroke="#973309" stroke-width="2" stroke-miterlimit="10" stroke-linejoin="round"/>
<path opacity="0.5" fill-rule="evenodd" clip-rule="evenodd" d="M405.492 483.398L404.798 474.37C404.384 468.986 408.97 464.552 414.337 465.149C418.7 465.633 422 469.321 422 473.71V488.328C414.161 487.407 408.083 485.609 405.492 483.398ZM424 488.541V476C424 470.477 428.477 466 434 466C439.523 466 444 470.477 444 476V488.541C440.874 488.838 437.507 489 434 489C430.493 489 427.127 488.838 424 488.541ZM446 488.328V473.291C446 469.084 449.042 465.493 453.192 464.801C458.695 463.884 463.603 468.364 463.191 473.927L462.488 483.415C459.886 485.618 453.819 487.409 446 488.328Z" fill="#FDC48F"/>
<rect opacity="0.5" width="18.3923" height="18.3923" rx="3" transform="matrix(-0.965926 0.258819 0.258819 0.965926 448.24 417)" fill="white"/>
<rect opacity="0.5" width="18.3923" height="18.3923" rx="3" transform="matrix(-0.866025 -0.5 -0.5 0.866025 442 437.196)" fill="white"/>
<path d="M188.597 445.025C184.583 447.885 185.623 452.511 186.645 454.467C186.645 454.467 394.916 495.771 395.97 492.268C397.023 488.766 188.597 445.025 188.597 445.025Z" fill="white"/>
<path d="M184.618 459.174C180.22 461.403 180.552 466.134 181.268 468.221C181.268 468.221 380.887 540.159 382.455 536.851C384.024 533.544 184.618 459.174 184.618 459.174Z" fill="white"/>
<path d="M178.659 469.863C171.335 476.034 160.625 474.225 150.648 472.52C147.226 471.935 143.961 473.933 143.17 477.246C140.533 488.291 136.346 513.306 146.264 533.016C149.724 539.93 167.137 526.243 174.857 530.065C195.213 541.131 225.5 524 229 519C232.5 514 234.5 514 246 515C257.5 516 261 506.5 253 500C267 504 272 498 269.5 493.5C267 489 241 482 229 479.5C232.5 475 249.5 477.246 254 479.5C255 485 260.5 490.5 269.5 490C274 490 271.5 474.5 267.5 468C263.5 461.5 242 460.5 234.5 458C240 452 247 456 253 458C259 460 267 462 267.5 458C268 450.5 253 444 241 438.5C229.045 433.021 212.128 445.903 205.079 448.966C205.024 448.99 204.968 449.007 204.91 449.021C187.5 453.033 187.635 462.648 178.659 469.863Z" fill="#DD9E86"/>
<path fill-rule="evenodd" clip-rule="evenodd" d="M686.405 356.684C684.7 346.707 682.891 335.997 689.062 328.672C689.385 328.271 689.714 327.862 690.05 327.445C697.229 318.531 707.171 306.184 712.425 292.332C713.02 291.143 713.78 289.821 714.629 288.346C719.49 279.894 727.256 266.393 723.425 243.832C722.912 240.808 722.424 237.816 721.945 234.875C718.224 212.043 714.999 192.248 703.925 183.832C691.425 174.332 671.425 167.332 664.425 171.332C660.425 178.332 664.425 186.832 671.425 185.332C673.825 186.132 676.425 190.332 677.425 192.332C675.425 194.332 671.425 199.232 671.425 202.832C666.925 199.332 659.925 199.832 657.425 204.832C652.425 202.832 640.925 206.332 640.425 213.832C640.025 219.832 641.925 226.998 642.925 229.832C637.381 229.665 626.807 232.232 628.86 243.832C631.425 258.332 639.925 256.832 642.925 252.332C642.925 254.014 642.886 255.521 642.85 256.893C642.705 262.455 642.618 265.822 645.425 269.832C646.457 271.305 644.22 274.193 640.911 278.465C632.994 288.688 618.94 306.833 628.86 332.475C630.671 336.133 628.551 341.968 626.553 347.463C624.336 353.565 622.271 359.248 625.909 361.068C645.619 370.986 670.634 366.799 681.679 364.161C684.992 363.371 686.99 360.106 686.405 356.684ZM691.19 216.453C688.425 212.832 686.916 207.602 686.142 203.078C686.603 209.64 681.396 213.496 678.735 214.604C681.941 221.243 689.131 233.914 692.247 231.491C696.142 228.462 693.955 220.075 691.19 216.453Z" fill="#D58E54"/>
<path d="M753.857 204.353C756.204 208.687 753.235 212.384 751.457 213.691C751.457 213.691 546.246 159.182 546.84 155.573C547.435 151.964 753.857 204.353 753.857 204.353Z" fill="white"/>
<path d="M751.207 218.81C754.176 222.747 751.798 226.85 750.237 228.409C750.237 228.409 539.323 205.217 539.369 201.556C539.415 197.896 751.207 218.81 751.207 218.81Z" fill="white"/>
<path d="M348.27 169C348.27 169 356.379 182.169 353.304 188.754C350.228 195.339 341 192.3 341 192.3" stroke="#945338" stroke-width="4" stroke-miterlimit="10" stroke-linejoin="round"/>
<path d="M811.573 191C811.573 191 806.038 196 803.047 203C798.183 205.5 797.605 209.735 798.183 212.972C799.79 221.96 818 219.763 818 219.763" stroke="#945338" stroke-width="4" stroke-miterlimit="10" stroke-linejoin="round"/>
<ellipse cx="580" cy="536" rx="119" ry="57" fill="#FFBB55"/>
<path d="M628.383 484.453C626.955 486.249 626.883 488.7 628.203 490.569L630.258 493.477C627.813 494.049 626 496.134 626 498.618V501.378C626 503.594 627.459 505.579 629.71 506.21C632.651 507.033 636.786 508 640 508C643.214 508 647.349 507.033 650.29 506.21C652.541 505.579 654 503.594 654 501.378V498.618C654 496.168 652.237 494.107 649.842 493.502C649.927 493.055 649.915 492.583 649.789 492.107L648.985 489.072C648.276 486.394 645.725 484.515 642.8 484.515C641.667 484.515 640.733 483.677 640.677 482.61L640.579 480.761C640.383 477.067 635.397 475.628 633.045 478.587L628.383 484.453Z" fill="#97B146"/>
<path d="M548.208 489.717H492V509.301C492 516.324 504.583 522.017 520.104 522.017C535.625 522.017 548.208 516.324 548.208 509.301V489.717Z" fill="#09190F"/>
<ellipse cx="520.104" cy="489.717" rx="28.104" ry="12.7168" fill="#183603"/>
<path d="M544.139 488.827C544.139 494.234 533.378 498.618 520.104 498.618C506.83 498.618 496.069 494.234 496.069 488.827C496.069 483.419 506.83 479.035 520.104 479.035C533.378 479.035 544.139 483.419 544.139 488.827Z" fill="white"/>
<path fill-rule="evenodd" clip-rule="evenodd" d="M524.046 500.253V521.893C528.871 521.587 533.303 520.726 537.017 519.458V497.226C533.582 498.787 529.082 499.875 524.046 500.253Z" fill="#183603"/>
<circle cx="523.792" cy="481.324" r="3.81503" fill="#EF8F50"/>
<circle cx="514.381" cy="482.341" r="3.81503" fill="#EF8F50"/>
<circle cx="529.896" cy="485.139" r="3.81503" fill="#EF8F50"/>
<circle cx="510.566" cy="486.156" r="3.81503" fill="#EF8F50"/>
<circle cx="515.908" cy="488.954" r="3.81503" fill="#EF8F50"/>
<circle cx="522.012" cy="487.682" r="3.81503" fill="#EF8F50"/>
<circle cx="519.977" cy="483.104" r="3.81503" fill="#EF8F50"/>
<circle cx="526.081" cy="487.682" r="3.81503" fill="#EF8F50"/>
<circle cx="520.231" cy="493.023" r="3.81503" fill="#EF8F50"/>
<circle cx="513.364" cy="491.752" r="3.81503" fill="#EF8F50"/>
<path d="M607.468 503.705H551.26V523.289C551.26 530.312 563.843 536.006 579.364 536.006C594.886 536.006 607.468 530.312 607.468 523.289V503.705Z" fill="#09190F"/>
<path d="M561.688 526.595H505.48V546.179C505.48 553.203 518.062 558.896 533.584 558.896C549.105 558.896 561.688 553.203 561.688 546.179V526.595Z" fill="#09190F"/>
<ellipse cx="579.364" cy="503.705" rx="28.104" ry="12.7168" fill="#183603"/>
<ellipse cx="533.584" cy="526.595" rx="28.104" ry="12.7168" fill="#183603"/>
<path d="M603.399 502.815C603.399 508.223 592.638 512.607 579.364 512.607C566.09 512.607 555.33 508.223 555.33 502.815C555.33 497.407 566.09 493.023 579.364 493.023C592.638 493.023 603.399 497.407 603.399 502.815Z" fill="white"/>
<path d="M557.619 525.705C557.619 531.113 546.858 535.497 533.584 535.497C520.31 535.497 509.549 531.113 509.549 525.705C509.549 520.297 520.31 515.913 533.584 515.913C546.858 515.913 557.619 520.297 557.619 525.705Z" fill="white"/>
<path fill-rule="evenodd" clip-rule="evenodd" d="M583.306 514.241V535.882C588.131 535.575 592.563 534.714 596.277 533.446V511.214C592.841 512.776 588.341 513.864 583.306 514.241Z" fill="#183603"/>
<path fill-rule="evenodd" clip-rule="evenodd" d="M537.526 537.131V558.772C542.351 558.465 546.783 557.605 550.497 556.336V534.104C547.061 535.666 542.561 536.754 537.526 537.131Z" fill="#183603"/>
<circle cx="588.648" cy="492.514" r="3.81503" fill="#EF8F50"/>
<circle cx="549.734" cy="525.578" r="3.81503" fill="#EF8F50"/>
<circle cx="592.462" cy="496.329" r="3.81503" fill="#EF8F50"/>
<circle cx="583.052" cy="495.312" r="3.81503" fill="#EF8F50"/>
<circle cx="537.272" cy="518.202" r="3.81503" fill="#EF8F50"/>
<circle cx="577.457" cy="492.514" r="3.81503" fill="#EF8F50"/>
<circle cx="518.196" cy="524.815" r="3.81503" fill="#EF8F50"/>
<circle cx="576.439" cy="498.11" r="3.81503" fill="#EF8F50"/>
<circle cx="530.659" cy="521" r="3.81503" fill="#EF8F50"/>
<circle cx="571.353" cy="494.295" r="3.81503" fill="#EF8F50"/>
<circle cx="525.572" cy="517.185" r="3.81503" fill="#EF8F50"/>
<circle cx="569.827" cy="500.145" r="3.81503" fill="#EF8F50"/>
<circle cx="524.046" cy="523.035" r="3.81503" fill="#EF8F50"/>
<circle cx="575.168" cy="502.942" r="3.81503" fill="#EF8F50"/>
<circle cx="529.387" cy="525.832" r="3.81503" fill="#EF8F50"/>
<circle cx="580.254" cy="500.908" r="3.81503" fill="#EF8F50"/>
<circle cx="534.474" cy="524.815" r="3.81503" fill="#EF8F50"/>
<circle cx="586.867" cy="498.11" r="3.81503" fill="#EF8F50"/>
<circle cx="539.561" cy="524.052" r="3.81503" fill="#EF8F50"/>
<circle cx="585.086" cy="503.196" r="3.81503" fill="#EF8F50"/>
<circle cx="539.561" cy="529.393" r="3.81503" fill="#EF8F50"/>
<circle cx="590.682" cy="500.908" r="3.81503" fill="#EF8F50"/>
<circle cx="579.491" cy="507.012" r="3.81503" fill="#EF8F50"/>
<circle cx="533.711" cy="529.902" r="3.81503" fill="#EF8F50"/>
<circle cx="572.624" cy="505.74" r="3.81503" fill="#EF8F50"/>
<circle cx="526.844" cy="528.63" r="3.81503" fill="#EF8F50"/>
<path d="M633.41 524.341C633.41 518.984 623.845 514.642 612.046 514.642C600.247 514.642 590.682 518.984 590.682 524.341V539.278C590.682 544.634 600.247 548.977 612.046 548.977C623.845 548.977 633.41 544.634 633.41 539.278V524.341Z" fill="#FFE7EB"/>
<path d="M668 545.196C668 539.84 658.435 535.497 646.636 535.497C634.837 535.497 625.271 539.84 625.271 545.196V560.133C625.271 565.49 634.837 569.832 646.636 569.832C658.435 569.832 668 565.49 668 560.133V545.196Z" fill="#FFE7EB"/>
<path d="M607.468 548.757C607.468 543.4 597.903 539.058 586.104 539.058C574.305 539.058 564.74 543.4 564.74 548.757V563.694C564.74 569.05 574.305 573.393 586.104 573.393C597.903 573.393 607.468 569.05 607.468 563.694V548.757Z" fill="#FFE7EB"/>
<ellipse cx="612.046" cy="524.052" rx="21.3642" ry="9.4104" fill="white"/>
<ellipse cx="646.636" cy="544.907" rx="21.3642" ry="9.4104" fill="white"/>
<ellipse cx="586.104" cy="548.468" rx="21.3642" ry="9.4104" fill="white"/>
<path d="M624 519.925C616.938 518.413 602.307 516.762 600.281 522.25C597.748 529.111 621.582 530.39 621.812 526.32C622.042 522.25 610.183 521.204 611.68 523.762" stroke="#A50633" stroke-width="1.52601" stroke-miterlimit="10" stroke-linejoin="round"/>
<path d="M658.59 540.781C651.528 539.269 636.897 537.618 634.871 543.106C632.337 549.967 656.172 551.246 656.402 547.176C656.632 543.106 644.773 542.06 646.27 544.618" stroke="#A50633" stroke-width="1.52601" stroke-miterlimit="10" stroke-linejoin="round"/>
<path d="M598.058 544.341C590.996 542.83 576.365 541.178 574.339 546.667C571.806 553.527 595.64 554.806 595.87 550.736C596.101 546.667 584.241 545.62 585.738 548.178" stroke="#A50633" stroke-width="1.52601" stroke-miterlimit="10" stroke-linejoin="round"/>
<path d="M563.208 166.717H507V186.301C507 193.324 519.583 199.017 535.104 199.017C550.625 199.017 563.208 193.324 563.208 186.301V166.717Z" fill="#09190F"/>
<ellipse cx="535.104" cy="166.717" rx="28.104" ry="12.7168" fill="#183603"/>
<path d="M559.139 165.827C559.139 171.234 548.378 175.618 535.104 175.618C521.83 175.618 511.069 171.234 511.069 165.827C511.069 160.419 521.83 156.035 535.104 156.035C548.378 156.035 559.139 160.419 559.139 165.827Z" fill="white"/>
<path fill-rule="evenodd" clip-rule="evenodd" d="M539.046 177.253V198.893C543.871 198.587 548.303 197.726 552.017 196.458V174.226C548.582 175.787 544.082 176.875 539.046 177.253Z" fill="#183603"/>
<circle cx="538.792" cy="158.324" r="3.81503" fill="#EF8F50"/>
<circle cx="529.381" cy="159.341" r="3.81503" fill="#EF8F50"/>
<circle cx="544.896" cy="162.139" r="3.81503" fill="#EF8F50"/>
<circle cx="525.566" cy="163.156" r="3.81503" fill="#EF8F50"/>
<circle cx="530.908" cy="165.954" r="3.81503" fill="#EF8F50"/>
<circle cx="537.011" cy="164.682" r="3.81503" fill="#EF8F50"/>
<circle cx="534.977" cy="160.104" r="3.81503" fill="#EF8F50"/>
<circle cx="541.081" cy="164.682" r="3.81503" fill="#EF8F50"/>
<circle cx="535.231" cy="170.023" r="3.81503" fill="#EF8F50"/>
<circle cx="528.364" cy="168.752" r="3.81503" fill="#EF8F50"/>
</g>
<defs>
<radialGradient id="paint0_radial_4_1615" cx="0" cy="0" r="1" gradientUnits="userSpaceOnUse" gradientTransform="translate(579.5 -41.3036) rotate(90) scale(562.129 697.043)">
<stop stop-color="#973309"/>
<stop offset="1" stop-color="#D8B5A6" stop-opacity="0"/>
</radialGradient>
<radialGradient id="paint1_radial_4_1615" cx="0" cy="0" r="1" gradientUnits="userSpaceOnUse" gradientTransform="translate(579.5 -41.3036) rotate(90) scale(562.129 697.043)">
<stop stop-color="#973309"/>
<stop offset="1" stop-color="#D8B5A6" stop-opacity="0"/>
</radialGradient>
<radialGradient id="paint2_radial_4_1615" cx="0" cy="0" r="1" gradientUnits="userSpaceOnUse" gradientTransform="translate(579.5 -41.3036) rotate(90) scale(562.129 697.043)">
<stop stop-color="#973309"/>
<stop offset="1" stop-color="#D8B5A6" stop-opacity="0"/>
</radialGradient>
<radialGradient id="paint3_radial_4_1615" cx="0" cy="0" r="1" gradientUnits="userSpaceOnUse" gradientTransform="translate(579.5 -41.3036) rotate(90) scale(562.129 697.043)">
<stop stop-color="#973309"/>
<stop offset="1" stop-color="#D8B5A6" stop-opacity="0"/>
</radialGradient>
<radialGradient id="paint4_radial_4_1615" cx="0" cy="0" r="1" gradientUnits="userSpaceOnUse" gradientTransform="translate(579.5 -41.3036) rotate(90) scale(562.129 697.043)">
<stop stop-color="#973309"/>
<stop offset="1" stop-color="#D8B5A6" stop-opacity="0"/>
</radialGradient>
<radialGradient id="paint5_radial_4_1615" cx="0" cy="0" r="1" gradientUnits="userSpaceOnUse" gradientTransform="translate(579.5 -41.3036) rotate(90) scale(562.129 697.043)">
<stop stop-color="#973309"/>
<stop offset="1" stop-color="#D8B5A6" stop-opacity="0"/>
</radialGradient>
<radialGradient id="paint6_radial_4_1615" cx="0" cy="0" r="1" gradientUnits="userSpaceOnUse" gradientTransform="translate(579.5 -41.3036) rotate(90) scale(562.129 697.043)">
<stop stop-color="#973309"/>
<stop offset="1" stop-color="#D8B5A6" stop-opacity="0"/>
</radialGradient>
<clipPath id="clip0_4_1615">
<rect width="1160" height="650" fill="white"/>
</clipPath>
<clipPath id="clip1_4_1615">
<rect width="1160" height="650" fill="white"/>
</clipPath>
<clipPath id="clip2_4_1615">
<rect width="140" height="50" fill="white" transform="translate(254 136)"/>
</clipPath>
</defs>
</svg>
