<svg width="1160" height="665" viewBox="0 0 1160 665" fill="none" xmlns="http://www.w3.org/2000/svg">
<g clip-path="url(#clip0_4_263)">
<rect width="1160" height="650" transform="translate(0 15)" fill="#04025D"/>
<rect x="579" y="15" width="202" height="523" fill="#1897E8"/>
<path d="M754 388.862L744.927 383.629L735.853 388.862L735.853 399.321L744.927 404.554L754 399.321L754 388.862Z" fill="#0E0E10"/>
<path d="M726.773 336.345L742.589 342.523L752.018 358.078L752.018 375.45L736.152 375.45L736.152 362.496L731.802 355.315L723.776 352.18L721.196 352.18L721.196 370.833L706.215 370.833C706.215 365.974 710.247 357.922 718.946 352.18L638.731 352.18L638.731 336.345L718.535 336.345C710.116 330.627 706.215 322.75 706.215 317.971L721.202 317.971L721.202 336.345L726.773 336.345Z" fill="#0E0E10"/>
<path d="M702.781 219.451C703.03 224.286 697.06 226.756 693.807 223.16L684.628 213.005C682.578 210.741 679.02 210.741 676.976 213.005L667.802 223.153C664.556 226.75 658.579 224.28 658.829 219.445L659.527 205.794C659.683 202.752 657.171 200.238 654.118 200.393L640.445 201.09C635.597 201.339 633.123 195.379 636.725 192.131L646.889 182.972C649.157 180.931 649.157 177.378 646.889 175.331L636.725 166.173C633.129 162.931 635.603 156.964 640.445 157.213L654.118 157.91C657.165 158.065 659.683 155.558 659.527 152.509L658.829 138.858C658.58 134.018 664.549 131.547 667.802 135.144L676.976 145.292C679.026 147.557 682.584 147.557 684.628 145.292L693.801 135.144C697.054 131.554 703.024 134.024 702.775 138.858L702.077 152.509C701.921 155.552 704.433 158.065 707.486 157.91L721.158 157.213C726.007 156.964 728.481 162.925 724.879 166.173L714.721 175.331C712.453 177.378 712.453 180.931 714.721 182.972L724.885 192.137C728.481 195.379 726.007 201.345 721.165 201.097L707.492 200.4C704.445 200.244 701.927 202.752 702.083 205.8L702.781 219.451Z" fill="#0E0E10"/>
<path d="M724.611 290.214C724.611 280.8 715.438 272.923 703.099 270.783C715.444 268.642 724.611 260.765 724.611 251.352C724.611 241.95 715.469 234.086 703.162 231.933L658.275 232.051C646.291 234.366 637.467 242.118 637.467 251.351C637.467 260.765 646.64 268.642 658.979 270.783C646.634 272.923 637.467 280.8 637.467 290.214C637.467 300.99 649.469 309.751 664.506 310.199L664.506 310.242L696.388 310.242C711.973 310.236 724.611 301.27 724.611 290.214Z" fill="#0E0E10"/>
<path d="M707.499 87.4154L707.499 103.966L695.671 119.539L708.303 129.109L723.359 109.292L723.359 82.0894L706.77 60.2441L680.235 52L653.701 60.2441L637.106 82.0894L637.106 109.292L652.161 129.109L664.799 119.539L652.965 103.966L652.965 87.4154L663.266 73.8577L680.235 68.5877L697.204 73.8577L707.499 87.4154Z" fill="#0E0E10"/>
<path d="M693.708 386.195L693.708 378.299L666.22 378.299L666.22 386.195L638.732 386.195L638.732 401.992L666.22 401.992L666.22 394.097L693.708 394.097L693.708 401.992L721.196 401.992L721.196 386.195L693.708 386.195Z" fill="#0E0E10"/>
<path d="M720.841 477.389L720.841 500L705.018 500L705.018 477.389L720.841 477.389Z" fill="#0E0E10"/>
<path d="M669.298 477.351L704.931 477.351L722.748 446.54L704.931 415.729L669.298 415.729L651.482 446.54L669.298 477.351Z" fill="#0E0E10"/>
<path d="M641.736 477.738C622.548 477.738 607 463.913 607 446.852C607 429.791 622.548 415.966 641.736 415.96L641.736 477.738Z" fill="#0E0E10"/>
<path d="M443.783 129.88C461.049 114.216 449.19 85.4689 425.98 86.6692L360.441 90.03C345.803 90.7802 333.765 78.6572 334.512 63.9836L337.858 -1.85245C339.052 -25.1682 310.405 -37.0811 294.842 -19.7668L250.841 29.1751C241.043 40.0978 223.986 40.0978 214.158 29.1751L170.187 -19.7368C154.594 -37.0811 125.976 -25.1681 127.171 -1.82244L130.517 64.0137C131.264 78.7172 119.195 90.8102 104.588 90.06L39.0493 86.6992C15.8389 85.4989 3.97973 114.246 21.2158 129.91L69.9368 174.081C80.8102 183.923 80.8102 201.057 69.9368 210.93L21.2158 255.1C3.94986 270.764 15.809 299.511 39.0493 298.311L104.588 294.95C119.225 294.2 131.264 306.323 130.517 320.996L127.171 386.833C125.976 410.148 154.624 422.061 170.187 404.747L214.158 355.805C223.986 344.882 241.043 344.882 250.841 355.805L294.812 404.747C310.405 422.091 339.022 410.178 337.828 386.833L334.482 320.996C333.735 306.293 345.803 294.2 360.411 294.95L425.95 298.311C449.16 299.511 461.019 270.734 443.753 255.1L395.032 210.93C384.159 201.087 384.159 183.953 395.032 174.081L443.783 129.88Z" fill="#FFBB55"/>
<rect x="908" y="15" width="202" height="523" fill="#F4C6FD"/>
<path fill-rule="evenodd" clip-rule="evenodd" d="M1012.33 78.8563H1012.44C1013.24 66.0979 1023.83 56 1036.78 56C1050.26 56 1061.19 66.9262 1061.19 80.404C1061.19 93.5723 1050.75 104.298 1037.7 104.783V104.825C1050.76 105.302 1061.19 116.035 1061.19 129.204C1061.19 142.682 1050.27 153.608 1036.79 153.608C1024 153.608 1013.51 143.761 1012.48 131.228H1012.3C1011.39 142.353 1003.02 151.362 992.201 153.245L1061.19 180.106V273.686L1002.23 296.641C1005.51 295.947 1008.91 295.582 1012.39 295.582C1039.35 295.582 1061.19 317.43 1061.19 344.386C1061.19 363.513 1050.2 380.068 1034.18 388.071C1035.04 387.979 1035.91 387.932 1036.79 387.932C1050.27 387.932 1061.19 398.887 1061.19 412.401L1061.19 475.531C1061.19 489.045 1050.27 500 1036.79 500C1023.32 500 1012.39 489.045 1012.39 475.531C1012.39 489.045 1001.47 500 987.989 500C974.512 500 963.587 489.045 963.587 475.531V412.401C963.587 398.887 974.512 387.932 987.989 387.932C988.873 387.932 989.746 387.979 990.606 388.071C974.587 380.068 963.587 363.513 963.587 344.386C963.587 326.48 973.227 310.828 987.602 302.337L963.587 311.686V142.105L968.637 144.071C965.47 139.955 963.587 134.799 963.587 129.204C963.587 116.621 973.107 106.272 985.329 104.95V104.657C973.107 103.336 963.587 92.9783 963.587 80.404C963.587 66.9262 974.512 56 987.989 56C1000.94 56 1011.54 66.0979 1012.33 78.8563ZM1001.38 391.944C1008.01 396.318 1012.39 403.847 1012.39 412.401C1012.39 403.847 1016.77 396.318 1023.4 391.944C1019.86 392.759 1016.18 393.19 1012.39 393.19C1008.61 393.19 1004.92 392.759 1001.38 391.944Z" fill="#0E0E10"/>
</g>
<path d="M1160 577.232V665H0V579.445C83.4535 501.185 312.152 445 581.202 445C847.711 445 1074.63 500.129 1160 577.232Z" fill="#C992F7"/>
<path d="M470 253C418.614 241.137 361.852 238.235 350.428 239.281L236.5 245C154.5 258.5 60.5341 332.002 34.2603 384.758C-18.9336 491.099 32.1683 578.953 148 581C180.596 581.576 183.508 526.175 177.58 494.095C251.604 473.139 341.193 457.848 439.961 450.3C490.5 490 593 459.258 593 384.758C593 313.758 521.386 264.863 470 253Z" fill="#4D595B"/>
<path d="M1136.5 433.499C1117.5 371.999 962.5 290 934 278C838.93 252.237 773.881 329.438 745.35 373.725C738.096 384.984 719.049 385.354 710.286 375.225C691.449 353.449 659.752 330.846 621.5 358.999C570.563 396.489 655.5 515.999 688.5 533.999C714.9 548.399 801 512.5 812.5 460C860.5 467 881.5 468.5 953 488.5C946.778 499.508 949.261 531.132 960.887 543.737C961.903 544.839 963.188 545.641 964.563 546.237C994.546 559.231 1027.99 553.446 1048 552.499C1103 548.499 1155.5 494.999 1136.5 433.499Z" fill="#39090B"/>
<path d="M319.53 60C347.089 60.0002 371.968 79.4968 369.877 101.93C366.167 141.737 345.781 240.331 305 248.5C281.152 253.277 223.077 203.837 218.307 143.861C216.239 117.853 224.137 81.7613 256.465 89.192C262.294 62.6538 303.272 59.9999 319.53 60Z" fill="#9C7461"/>
<path d="M355 101C361.365 99.5771 372.552 155.159 373.706 161.5C382.716 211.003 364.618 261.458 329.374 254.171C319.127 278.421 360.935 315 308.469 315C276.599 315 248.697 294.79 231.077 279.149C224.182 273.028 224.475 262.244 230.275 255.08C241.116 241.69 251.998 225.189 252.929 204.5C223.912 206 214.907 174.5 227.633 164.131C232.782 159.936 238.533 160.529 243.403 162.744C246.373 164.095 250.468 162.423 251.357 159.283C256.232 142.07 271.475 128.261 275.828 111.751C277.036 107.17 281.098 103.423 285.821 103.794C316.113 106.171 339.934 104.368 355 101Z" fill="#FCBA8B"/>
<path d="M230 372C211.775 372 197 374.239 197 377V547C197 549.761 211.775 552 230 552C248.225 552 263 549.761 263 547V377C263 374.239 248.225 372 230 372Z" fill="#A0E0E7"/>
<path d="M205 397H255V496C255 509.807 243.807 521 230 521C216.193 521 205 509.807 205 496V397Z" fill="#25BE7C"/>
<ellipse cx="230" cy="397" rx="25" ry="3" fill="#179443"/>
<path fill-rule="evenodd" clip-rule="evenodd" d="M242.635 429.839C236.972 428.997 232.626 424.114 232.626 418.216C232.626 415.496 233.551 412.992 235.102 411C240.766 411.841 245.111 416.725 245.111 422.623C245.111 425.343 244.187 427.847 242.635 429.839Z" fill="#09190F"/>
<path fill-rule="evenodd" clip-rule="evenodd" d="M248.568 487.733C248.564 491.791 246.457 495.736 242.69 497.91C238.924 500.085 234.453 499.937 230.938 497.912C230.941 493.854 233.048 489.909 236.815 487.734C240.582 485.559 245.052 485.707 248.568 487.733Z" fill="#09190F"/>
<path fill-rule="evenodd" clip-rule="evenodd" d="M215.672 455.776C222.162 455.776 227.423 450.515 227.423 444.025C227.423 441.902 226.86 439.91 225.875 438.192C225.186 438.066 224.476 438 223.751 438C217.261 438 212 443.261 212 449.751C212 451.874 212.563 453.865 213.548 455.584C214.237 455.71 214.947 455.776 215.672 455.776Z" fill="#09190F"/>
<path d="M212 430L232 340" stroke="#03401B" stroke-width="2" stroke-miterlimit="10" stroke-linejoin="round"/>
<circle cx="233.5" cy="333.5" r="7.5" stroke="#03401B" stroke-width="2" stroke-miterlimit="10" stroke-linejoin="round"/>
<path d="M250.053 470C247.135 464.947 242.33 461.26 236.694 459.75C231.058 458.239 225.053 459.03 220 461.947C214.947 464.865 211.26 469.67 209.75 475.306C208.239 480.942 209.03 486.947 211.947 492L231 481L250.053 470Z" fill="#03401B"/>
<path d="M245.722 472.5C243.468 468.595 239.755 465.746 235.4 464.579C231.045 463.412 226.405 464.023 222.5 466.277C218.595 468.532 215.746 472.245 214.579 476.6C213.412 480.955 214.023 485.595 216.278 489.5L231 481L245.722 472.5Z" fill="#179443"/>
<path d="M234.464 479C233.934 478.081 233.06 477.411 232.035 477.136C231.011 476.862 229.919 477.005 229 477.536C228.081 478.066 227.411 478.94 227.136 479.965C226.862 480.989 227.005 482.081 227.536 483L231 481L234.464 479Z" fill="#CEF9E9"/>
<rect opacity="0.5" x="221" y="442.91" width="13.8205" height="13.8205" rx="2" transform="rotate(-30 221 442.91)" fill="white"/>
<rect opacity="0.5" x="237.91" y="419" width="13.8205" height="13.8205" rx="2" transform="rotate(30 237.91 419)" fill="white"/>
<rect opacity="0.5" x="237.91" y="452" width="13.8205" height="13.8205" rx="2" transform="rotate(30 237.91 452)" fill="white"/>
<rect opacity="0.5" x="218.319" y="411" width="13.8205" height="13.8205" rx="2" transform="rotate(5.47558 218.319 411)" fill="white"/>
<rect opacity="0.5" width="13.8205" height="13.8205" rx="2" transform="matrix(0.866025 0.5 0.5 -0.866025 213 508.09)" fill="white"/>
<path d="M408.341 356.191C422.181 364.053 426.375 360.553 436.352 358.848C439.774 358.263 443.039 360.261 443.83 363.573C446.467 374.619 450.654 399.634 440.736 419.344C437.276 426.258 419.863 412.571 412.143 416.393C401.719 421.488 383.092 421.279 373.212 419.64C370.954 419.265 368.279 420.516 366.466 421.912C361.565 425.687 351.744 429.406 351.744 430.998C351.744 433.043 354.099 440.93 360.576 436.84C367.053 432.751 376.18 438.593 373.53 440.93C370.88 443.266 350.566 451.738 340.851 454.074C331.135 456.411 329.075 451.153 327.602 447.356C321.714 447.064 319.359 434.503 321.126 418.729C320.242 423.403 313.471 430.706 311.999 443.559C310.527 456.411 298.162 468.096 299.045 456.703C299.928 445.311 302.578 416.1 308.761 408.223C314.943 400.346 334.079 383.092 346.444 371.328C355 363.573 394.5 348.328 408.341 356.191Z" fill="#FCBA8B"/>
<path d="M1005.76 272.166C1005.76 272.166 862.284 337.393 731.696 298.777C727.38 273.383 744.425 280.31 747.336 268.498C747.87 266.332 746.416 264.304 744.6 263.009C731.446 253.631 730.043 229.726 735.875 220.502C743.892 207.821 756.036 210.865 757.814 197.019C760.852 173.351 747.752 169.883 747.752 146.401C747.752 122.841 779.595 108.347 799.48 110.741C802.569 111.113 805.753 109.578 807.12 106.783C817.7 85.1684 841.575 75 864.383 75C909.099 75 945.312 103.871 945.312 146.401C945.312 166.226 974.728 145.063 981.78 163.849C989.352 184.023 974.786 197.019 993.769 205.279C1004.67 216.383 1001.02 231.658 992.463 240.987C990.896 242.696 992.059 246.707 994.238 247.498C1008.67 252.738 1005.76 272.166 1005.76 272.166Z" fill="#0E0E10"/>
<path d="M788.113 173.646C769.928 228.129 787.867 293.391 827.626 285.171C837.873 309.421 796.065 346 848.531 346C880.401 346 908.303 325.79 925.923 310.149C932.818 304.028 932.525 293.244 926.725 286.08C915.884 272.69 905.002 256.189 904.071 235.5C933.088 237 938.038 209.069 929.367 195.131C916.679 174.737 903.341 192.406 897.39 198.183C896.82 198.736 896.089 199.046 895.295 199.077C890.106 199.275 868.628 198.778 840 180C807 158.354 810.843 105.542 788.113 173.646Z" fill="#D58E54"/>
<path fill-rule="evenodd" clip-rule="evenodd" d="M888.276 387.059C888.276 387.059 879.261 379.686 854.158 379.873C829.757 380.043 820.867 387.283 820.867 387.283C820.867 387.283 807.444 423.196 807.36 437.557C807.287 452.597 825.309 467.733 844.818 475.578C851.169 478.131 852.733 537.178 844.47 547.303C836.213 557.426 821.191 556.091 821.234 559.661C821.278 562.856 886.365 562.454 886.431 559.434C886.506 555.869 871.472 557.284 863.304 547.197C855.124 537.113 857.194 478.063 863.569 475.47C883.148 467.534 901.294 452.303 901.354 437.267C901.396 422.905 888.276 387.059 888.276 387.059Z" fill="#D2F5F5"/>
<path d="M823 410H887L890.892 418.864C898.741 436.743 891.003 458.116 872.223 463.462C865.94 465.251 859.826 466.5 855 466.5C850.174 466.5 844.06 465.251 837.777 463.462C818.997 458.116 811.259 436.743 819.108 418.864L823 410Z" fill="#E9303B"/>
<ellipse cx="855" cy="410" rx="32" ry="6" fill="#99060C"/>
<path opacity="0.5" fill-rule="evenodd" clip-rule="evenodd" d="M339.238 204.525C336.547 203.605 316.58 205.815 313.5 204.525C291.5 201 285.5 187.731 284 205.667C282.5 223.602 308.435 263 343.016 263C367.491 263 371.927 237.8 371.964 228.9C371.997 220.85 377.317 211.083 376.854 201.891C376.806 200.94 375.535 200.713 374.951 201.464C371.098 206.42 364.956 207.598 362.207 205.667C359.08 203.469 355.206 202.676 350.586 204.376C347.047 205.679 342.806 205.744 339.238 204.525ZM367.037 227.873C363.011 226.598 359.029 224.375 355.5 222.105C348.799 217.795 340.961 217.655 334.031 221.586C329.23 224.309 323.562 227.034 317.763 228.27C319.326 229.38 320.556 231.203 321.774 233.008C323.42 235.45 325.044 237.858 327.438 238.418C331.5 238.418 333.973 236.413 337.181 233.619C340.028 231.138 342.883 228.652 345.844 228.652C348.805 228.652 351.864 231.289 354.361 233.684C356.671 235.899 358.765 237.907 360.859 237.435C362.676 237.025 363.652 234.737 364.685 232.313C365.36 230.728 366.061 229.086 367.037 227.873Z" fill="#9C7461"/>
<path d="M798.014 248.244C798.242 246.049 807.641 245.293 809.967 250.557C812.707 245.293 828.206 242.91 835 247.26C827 255 827.907 263 811.187 263C804.704 263 801.955 256.428 801.27 252.819C800.39 251.883 797.786 250.439 798.014 248.244Z" fill="#E9303B"/>
<path d="M363.036 163.512C367.379 162.476 372.264 162.862 375.437 166.141L372.563 168.923C371.495 167.82 369.926 167.174 368.039 167.029C369.231 167.943 370 169.382 370 171C370 173.761 367.761 176 365 176C362.239 176 360 173.761 360 171C360 170.117 360.229 169.288 360.63 168.568C358.237 169.678 356.067 171.305 354.581 173.224L351.418 170.776C354.204 167.177 358.638 164.561 363.036 163.512Z" fill="#0E0E10"/>
<path d="M319 178C321.761 178 324 175.761 324 173C324 171.382 323.231 169.943 322.039 169.029C323.926 169.174 325.495 169.82 326.563 170.923L329.437 168.141C326.264 164.862 321.379 164.476 317.036 165.512C312.638 166.561 308.204 169.177 305.418 172.776L308.581 175.224C310.067 173.305 312.237 171.678 314.63 170.568C314.229 171.288 314 172.117 314 173C314 175.761 316.239 178 319 178Z" fill="#0E0E10"/>
<path d="M355.863 149.09C357.522 147.921 372.566 139.834 380 155.736C374.408 152.278 365.465 153.9 357.3 155.736C349.65 157.456 354.203 150.26 355.863 149.09Z" fill="#945338"/>
<path d="M324.603 149.028C318.434 146.44 303.459 147.931 295 163C301.363 159.723 312.903 154.715 322.193 156.455C330.898 158.084 328.168 150.122 324.603 149.028Z" fill="#945338"/>
<path d="M793.964 198.512C789.621 197.476 784.736 197.862 781.563 201.141L784.437 203.923C785.505 202.82 787.074 202.174 788.961 202.029C787.769 202.943 787 204.382 787 206C787 208.761 789.239 211 792 211C794.761 211 797 208.761 797 206C797 205.117 796.771 204.288 796.37 203.568C798.763 204.678 800.933 206.305 802.419 208.224L805.582 205.776C802.796 202.177 798.362 199.561 793.964 198.512Z" fill="#0E0E10"/>
<path d="M838 213C835.239 213 833 210.761 833 208C833 206.382 833.769 204.943 834.961 204.029C833.074 204.174 831.505 204.82 830.437 205.923L827.563 203.141C830.736 199.862 835.621 199.476 839.964 200.512C844.362 201.561 848.796 204.177 851.582 207.776L848.419 210.224C846.933 208.305 844.763 206.678 842.37 205.568C842.771 206.288 843 207.117 843 208C843 210.761 840.761 213 838 213Z" fill="#0E0E10"/>
<path d="M801.137 184.09C799.478 182.921 784.434 174.834 777 190.736C782.592 187.278 791.535 188.9 799.7 190.736C807.35 192.456 802.797 185.26 801.137 184.09Z" fill="#0E0E10"/>
<path d="M832.397 184.028C838.566 181.44 853.541 182.931 862 198C855.637 194.723 844.097 189.715 834.807 191.455C826.102 193.084 828.832 185.122 832.397 184.028Z" fill="#0E0E10"/>
<path d="M941.341 442.974C948.665 449.145 959.375 447.336 969.352 445.631C972.774 445.046 976.039 447.044 976.83 450.357C979.467 461.402 983.654 486.417 973.736 506.128C970.276 513.042 952.863 499.354 945.143 503.177C916.551 514.742 896 498.611 885.5 503.177C876.248 507.2 868.548 504.133 864.455 497.829C863.464 496.304 861.717 495.412 859.927 495.096C855.929 494.392 853.216 491.036 850.675 487.994C849.935 487.109 848.837 486.634 847.688 486.524C843.862 486.158 839.519 484.561 837.766 480.452C836.99 478.632 835.512 477.024 833.656 476.34C822.715 472.309 812.093 454.519 813 453.611C814 452.611 834.5 463.611 850.5 463.611C866.5 463.611 894.5 458.611 894 450.357C893.5 442.103 888 439.611 876 442.974C864 446.337 856.5 437.111 857 435.111C857.5 433.111 867 429.111 876 422.111C885 415.111 908 422.111 915 422.111C924.956 422.705 932.35 435.747 941.341 442.974Z" fill="#D58E54"/>
<path d="M178.659 484.974C173.319 490.948 160.625 489.336 150.648 487.631C147.226 487.046 143.961 489.044 143.17 492.357C140.533 503.402 136.346 528.417 146.264 548.128C149.724 555.042 165.5 529.5 186 529.5C206.5 529.5 239.672 503.199 243.889 497.078C248.107 490.958 255.391 490.193 259.609 483.69C262.983 478.487 258.714 476.931 256.158 476.804C259.481 475.274 266.127 471.295 266.127 467.623C266.127 463.951 254.625 463.798 248.873 464.18C251.302 462.778 257.385 459.896 262.293 459.59C268.427 459.207 274.561 452.704 273.028 446.966C271.494 441.228 262.293 443.141 256.158 445.818C252.424 447.448 242.739 449.644 236.988 450.791C236.988 446.583 252.708 438.933 262.293 437.403C271.878 435.872 278.012 431.665 276.862 427.839C275.712 424.014 259.992 425.161 252.708 425.161C245.423 425.161 218.585 438.933 211.3 445.818C204.015 452.704 184 479 178.659 484.974Z" fill="#FCBA8B"/>
<path d="M624.528 333.179C629.82 341.162 626.797 351.595 623.961 361.311C622.989 364.643 624.6 368.115 627.8 369.28C638.471 373.165 662.842 380.188 683.558 372.591C690.823 369.945 667.535 347.073 672.216 339.841C682.348 318.001 671.657 314.108 671.255 304.499C670.852 294.89 679.486 289.845 685.14 284.457C690.794 279.068 689.952 268.905 684.928 268.83C680.908 268.769 668.366 281.517 662.598 287.899C662.26 285.008 661.855 277.747 662.939 271.832C664.295 264.439 679.118 258.094 685.727 248.789C691.014 241.346 686.158 237.766 683.069 236.907C684.763 236.767 687.415 230.865 686.812 226.266C685.473 216.045 674.47 219.81 669.924 224.32C666.287 227.927 646.073 245.059 636.421 253.174C636.955 248.538 638.829 238.353 642.053 234.698C646.082 230.129 654.162 216.967 650.589 213.032C647.016 209.097 641.515 208.967 627.438 230.497C608.057 260.139 602.974 285.559 605.67 301.472C608.366 317.385 618.378 323.42 624.528 333.179Z" fill="#D58E54"/>
<path d="M348.27 180C348.27 180 356.379 193.169 353.304 199.754C350.228 206.339 341 203.3 341 203.3" stroke="#BE724D" stroke-width="4" stroke-miterlimit="10" stroke-linejoin="round"/>
<path d="M809.73 211C809.73 211 809.69 215.968 808 221C806.789 224.607 803.412 228.005 804.696 230.754C807.772 237.339 817 234.3 817 234.3" stroke="#945338" stroke-width="4" stroke-miterlimit="10" stroke-linejoin="round"/>
<ellipse cx="580" cy="510" rx="119" ry="23" fill="#D2F5F5"/>
<ellipse cx="580" cy="585" rx="61" ry="23" fill="white"/>
<path d="M579.995 436C575.414 436 571.487 438.8 569.833 442.782C567.401 439.238 563.002 437.306 558.53 438.231L558.519 438.233C554.079 439.152 550.821 442.627 549.967 446.805C546.942 443.826 542.325 442.749 538.134 444.436L538.124 444.44C533.963 446.116 531.386 450.049 531.237 454.261C527.801 451.846 523.128 451.519 519.284 453.804L519.275 453.809C515.449 456.085 513.505 460.317 513.961 464.472C510.239 462.587 505.601 462.913 502.126 465.685L502.118 465.691C498.642 468.464 497.292 472.914 498.304 476.964C494.356 475.588 489.795 476.534 486.72 479.755L486.713 479.762C483.611 483.011 482.891 487.663 484.501 491.563C480.304 490.772 475.847 492.479 473.32 496.252L473.313 496.261C470.621 500.28 470.929 505.431 473.715 509.07C468.247 509.706 464.003 514.352 464 519.99L464 520C464 524.337 466.548 528.268 470.506 530.04L470.51 530.042C474.262 531.721 478.453 531.128 481.541 528.851C481.9 532.671 484.25 536.192 488.002 537.871L488.01 537.875C491.762 539.555 495.953 538.961 499.041 536.685C499.4 540.504 501.75 544.026 505.502 545.705L505.51 545.709C509.262 547.388 513.453 546.795 516.541 544.518C516.9 548.338 519.25 551.859 523.002 553.538L523.01 553.542C526.762 555.221 530.953 554.628 534.041 552.351C534.4 556.171 536.75 559.692 540.502 561.371L540.51 561.375C544.262 563.055 548.453 562.461 551.541 560.185C551.9 564.004 554.25 567.526 558.002 569.205L558.01 569.209C561.762 570.888 565.953 570.295 569.041 568.018C569.4 571.838 571.75 575.359 575.502 577.038L575.506 577.04C578.365 578.32 581.635 578.32 584.494 577.04L584.498 577.038C588.25 575.359 590.6 571.838 590.959 568.018C594.047 570.295 598.238 570.888 601.99 569.209L601.999 569.205C605.75 567.526 608.1 564.004 608.459 560.185C611.547 562.461 615.738 563.055 619.49 561.375L619.498 561.371C623.25 559.692 625.6 556.171 625.959 552.351C629.047 554.628 633.238 555.221 636.99 553.542L636.999 553.538C640.75 551.859 643.1 548.338 643.459 544.518C646.547 546.795 650.738 547.388 654.49 545.709L654.498 545.705C658.25 544.026 660.6 540.504 660.959 536.685C664.047 538.961 668.238 539.555 671.99 537.875L671.998 537.871C675.75 536.192 678.1 532.671 678.459 528.851C681.547 531.128 685.738 531.721 689.49 530.042L689.494 530.04C693.452 528.268 696 524.337 696 520V519.992C695.998 514.465 691.922 509.892 686.612 509.113C689.642 505.547 690.158 500.293 687.531 496.125L687.526 496.116C685.058 492.201 680.528 490.375 676.239 491.159C677.972 487.227 677.299 482.47 674.159 479.154L674.152 479.146C671.047 475.869 666.404 474.922 662.414 476.367C663.466 472.268 662.089 467.749 658.545 464.971L658.537 464.964C654.997 462.189 650.287 461.928 646.559 463.92C647.015 459.714 645.008 455.44 641.106 453.195L641.097 453.19C637.183 450.939 632.464 451.363 629.055 453.891C628.882 449.639 626.237 445.691 622.013 444.065L622.003 444.061C617.758 442.427 613.122 443.601 610.145 446.675C609.271 442.471 605.965 438.992 601.487 438.114L601.477 438.112C596.974 437.229 592.574 439.23 590.187 442.831C588.545 438.823 584.605 436 580.005 436H579.995Z" fill="#FFE8C5"/>
<path d="M580 533C645.722 533 699 522.703 699 510C699 553.968 645.722 596 580 596C514.278 596 461 553.968 461 510C461 522.703 514.278 533 580 533Z" fill="#D2F5F5"/>
<path d="M580 533C645.722 533 699 522.703 699 510C699 543.961 667.215 576.766 622.46 589.941C555.239 588.495 500.089 560.849 489.024 524.827C510.853 529.825 543.508 533 580 533Z" fill="white"/>
<path d="M632.826 476.144C630.81 468.806 632.48 460.73 637.895 455.114C643.311 449.497 651.098 447.766 658.174 449.856C660.19 457.194 658.52 465.27 653.105 470.886C647.689 476.503 639.902 478.234 632.826 476.144Z" fill="#CCDF8A"/>
<path d="M534.826 514.144C532.81 506.806 534.48 498.73 539.895 493.114C545.311 487.497 553.098 485.766 560.174 487.856C562.19 495.194 560.52 503.27 555.105 508.886C549.689 514.503 541.902 516.234 534.826 514.144Z" fill="#CCDF8A"/>
<path d="M527.174 514.144C529.19 506.806 527.52 498.73 522.105 493.114C516.689 487.497 508.902 485.766 501.826 487.856C499.81 495.194 501.48 503.27 506.895 508.886C512.311 514.503 520.098 516.234 527.174 514.144Z" fill="#CCDF8A"/>
<circle r="7.5" transform="matrix(-1 0 0 1 585.5 476.5)" fill="#97B146"/>
<circle r="7.5" transform="matrix(-1 0 0 1 628.5 507.5)" fill="#EF8F50"/>
<circle r="7.5" transform="matrix(-1 0 0 1 516.5 466.5)" fill="#FFBB55"/>
<circle cx="575" cy="521" r="3" fill="#FDC48F"/>
<circle cx="585" cy="507" r="3" fill="#FDC48F"/>
<circle cx="548" cy="463" r="3" fill="#FDC48F"/>
<circle cx="610" cy="466" r="3" fill="#FDC48F"/>
<circle cx="662" cy="504" r="3" fill="#FDC48F"/>
<circle cx="626" cy="474" r="3" fill="#FDC48F"/>
<circle cx="566" cy="455" r="3" fill="#FDC48F"/>
<circle cx="489" cy="510" r="3" fill="#FDC48F"/>
<defs>
<clipPath id="clip0_4_263">
<rect width="1160" height="650" fill="white" transform="translate(0 15)"/>
</clipPath>
</defs>
</svg>
